<svg xmlns="http://www.w3.org/2000/svg" viewBox="0 0 1100 700" role="img" aria-label="Desktop layout mockup">
  <rect width="1100" height="700" fill="#0a0a0c"/>
  <!-- masonry -->
  <rect x="16" y="16" width="520" height="400" rx="14" fill="#1a1a22" stroke="#5b8c3e" stroke-width="3"/>
  <text x="36" y="48" font-family="Segoe UI" font-size="16" fill="#9ccc65">MINIGAME</text>
  <rect x="548" y="16" width="420" height="270" rx="14" fill="#2a1520" stroke="#ff4d6d" stroke-width="3"/>
  <text x="568" y="48" font-family="Segoe UI" font-size="16" fill="#ff8fa3">LOOP</text>
  <rect x="548" y="298" width="420" height="118" rx="14" fill="#0b3d2e" stroke="#1db954" stroke-width="3"/>
  <text x="568" y="330" font-family="Segoe UI" font-size="16" fill="#1db954">WAVE</text>
  <rect x="16" y="432" width="476" height="200" rx="14" fill="#0d2137" stroke="#1da1f2" stroke-width="3"/>
  <text x="36" y="464" font-family="Segoe UI" font-size="16" fill="#6ec6ff">PULSE</text>
  <rect x="508" y="432" width="460" height="200" rx="14" fill="#2a0a12" stroke="#ff0033" stroke-width="3"/>
  <text x="528" y="464" font-family="Segoe UI" font-size="16" fill="#ff6680">ECHO</text>
  <!-- dopamine bar -->
  <rect x="1000" y="16" width="70" height="640" rx="16" fill="#1a1020" stroke="#5b1d8a" stroke-width="2"/>
  <rect x="1010" y="200" width="50" height="440" rx="12" fill="#ff8c00" opacity="0.95"/>
  <circle cx="1035" cy="200" r="28" fill="#ff8c00" opacity="0.35"/>
  <text x="1035" y="680" text-anchor="middle" font-family="Segoe UI" font-size="11" fill="#ffb347">DA</text>
  <!-- sticker -->
  <text x="200" y="120" font-family="Impact" font-size="36" fill="#ffe566" stroke="#000" stroke-width="2" transform="rotate(-8 200 120)">x3!!</text>
  <rect x="700" y="80" width="200" height="48" rx="8" fill="#f5a623" opacity="0.9"/>
  <text x="800" y="110" text-anchor="middle" font-family="Segoe UI" font-size="14" fill="#111">LIVE NOW · 0:04</text>
</svg>
