<svg xmlns="http://www.w3.org/2000/svg" xmlns:xlink="http://www.w3.org/1999/xlink" width="560" height="150" viewBox="0 0 560 150" role="img" aria-label="Pulse ad / spam card">
<title>Pulse ad / spam card</title>
<defs>

<linearGradient id="pka-av" x1="0" y1="0" x2="1" y2="1">
  <stop offset="0" stop-color="#8a95a3"/>
  <stop offset="1" stop-color="#5b6675"/>
</linearGradient>
<clipPath id="pka-avc"><circle cx="38" cy="78" r="24"/></clipPath>
<linearGradient id="pkad" x1="0" y1="0" x2="0" y2="1"><stop offset="0" stop-color="#241f14"/><stop offset="1" stop-color="#181410"/></linearGradient>
</defs>
<rect width="560" height="150" fill="#0a0d12"/>
<path d="M22 10 H538 A12 12 0 0 1 550 22 V114 A12 12 0 0 1 538 126 H22 A12 12 0 0 1 10 114 V22 A12 12 0 0 1 22 10 Z" fill="url(#pkad)" stroke="#5a4a22" stroke-width="1.4"/>
<g>
  <path d="M36 24 H81.92 A12 12 0 0 1 93.92 36 V36 A12 12 0 0 1 81.92 48 H36 A12 12 0 0 1 24 36 V36 A12 12 0 0 1 36 24 Z" fill="#3a2f14" stroke="#6b5722" stroke-width="1.3"/>
  <text x="58.96" y="40.2" font-family="Public Sans" font-size="12" font-weight="600" fill="#d8b75a" text-anchor="middle" letter-spacing="0.3">PROMOTED</text>
</g>

<g>
  <circle cx="38" cy="78" r="24" fill="url(#pka-av)"/>
  <g clip-path="url(#pka-avc)">
    <circle cx="38" cy="73.68" r="8.16" fill="#fff" opacity="0.88"/>
    <path d="M22.16 102 a15.84 12.48 0 0 1 31.68 0 Z" fill="#fff" opacity="0.88"/>
  </g>
  <circle cx="38" cy="78" r="24" fill="none" stroke="#05070a" stroke-width="2.16" stroke-opacity="0.6"/>
  <circle cx="38" cy="78" r="22.5" fill="none" stroke="#fff" stroke-width="1.2" stroke-opacity="0.3"/>
</g>
<text x="72" y="74" font-family="Public Sans" font-size="16" font-weight="800" fill="#9a8c6e">A Brand That Loves You</text>
<text x="72" y="98" font-family="Public Sans" font-size="15" font-weight="500" fill="#6e6350">buy the thing. the thing is good.</text>
<text x="534" y="74" font-family="Public Sans" font-size="12" font-weight="800" fill="#6e6350" text-anchor="end" letter-spacing="1.6">NO REWARD</text>
<text x="280" y="138" font-family="Public Sans" font-size="10.5" font-weight="600" fill="#4b535d" text-anchor="middle" letter-spacing="1.6">rewardable: false — VISUALLY IDENTIFIABLE FILLER</text>
</svg>
